<svg width="671" height="801" viewBox="0 0 671 801" fill="none" xmlns="http://www.w3.org/2000/svg">
<path d="M507.218 49.1981H464.078L499.798 14.4181L507.218 49.1981ZM201.328 49.3181H160.258L195.038 16.0381L201.328 49.3181ZM534.278 81.8981L514.718 0.078125H496.728V0.148117H474.958L391.238 78.4881L423.958 0.178116H388.078L344.728 34.1381L322.408 52.4581H321.388L331.898 25.7581L319.098 0.168121H283.058L250.288 78.6281L231.398 0.168121H191.898L104.648 81.9181H126.458L148.758 60.5481H203.728L208.108 81.9181H266.518L287.638 31.3881C288.698 28.8481 289.718 25.9381 290.708 22.6681C290.808 25.3081 291.528 28.1081 292.828 31.0581L311.398 73.2081H314.528L367.668 31.2081C369.658 29.6381 372.668 26.7781 376.698 22.6681C374.638 26.4781 373.208 29.3781 372.358 31.3881L351.248 81.9181H389.808V81.8981H430.478L452.528 60.4181H509.628L514.208 81.8981H534.278Z" fill="white"/>
<path d="M568.79 307.564H599.14V200.854H568.79V307.564ZM510.88 307.564H541.23V200.854H510.88V307.564ZM452.97 307.564H483.32V200.854H452.97V307.564ZM587.1 701.514C576.42 701.514 567.77 710.174 567.77 720.844C567.77 731.514 576.43 740.174 587.1 740.174C597.77 740.174 606.43 731.524 606.43 720.844C606.43 710.164 597.77 701.514 587.1 701.514ZM587.1 645.304C576.42 645.304 567.77 653.954 567.77 664.634C567.77 675.314 576.43 683.964 587.1 683.964C597.77 683.964 606.43 675.304 606.43 664.634C606.43 653.964 597.77 645.304 587.1 645.304ZM587.1 589.084C576.42 589.084 567.77 597.744 567.77 608.414C567.77 619.084 576.43 627.744 587.1 627.744C597.77 627.744 606.43 619.094 606.43 608.414C606.43 597.734 597.77 589.084 587.1 589.084ZM529.71 701.514C519.03 701.514 510.38 710.174 510.38 720.844C510.38 731.514 519.03 740.174 529.71 740.174C540.39 740.174 549.04 731.524 549.04 720.844C549.04 710.164 540.38 701.514 529.71 701.514ZM529.71 645.304C519.03 645.304 510.38 653.954 510.38 664.634C510.38 675.314 519.03 683.964 529.71 683.964C540.39 683.964 549.04 675.304 549.04 664.634C549.04 653.964 540.38 645.304 529.71 645.304ZM529.71 589.084C519.03 589.084 510.38 597.744 510.38 608.414C510.38 619.084 519.03 627.744 529.71 627.744C540.39 627.744 549.04 619.094 549.04 608.414C549.04 597.734 540.38 589.084 529.71 589.084ZM472.3 701.514C461.62 701.514 452.97 710.174 452.97 720.844C452.97 731.514 461.63 740.174 472.3 740.174C482.97 740.174 491.63 731.524 491.63 720.844C491.63 710.164 482.98 701.514 472.3 701.514ZM472.3 645.304C461.62 645.304 452.97 653.954 452.97 664.634C452.97 675.314 461.63 683.964 472.3 683.964C482.97 683.964 491.63 675.304 491.63 664.634C491.63 653.964 482.98 645.304 472.3 645.304ZM472.3 589.084C461.62 589.084 452.97 597.744 452.97 608.414C452.97 619.084 461.63 627.744 472.3 627.744C482.97 627.744 491.63 619.094 491.63 608.414C491.63 597.734 482.98 589.084 472.3 589.084ZM23.28 400.884C43.47 416.214 70.52 416.214 90.71 400.884L96.2 396.714C107.5 388.134 122.97 388.134 134.27 396.714L139.76 400.884C159.95 416.214 187 416.214 207.19 400.884L212.68 396.714C216.92 393.494 221.71 391.474 226.64 390.654V366.064C216.57 367.014 206.67 370.774 198 377.364L192.51 381.534C181.21 390.124 165.75 390.124 154.44 381.534L148.95 377.364C128.76 362.034 101.71 362.034 81.52 377.364L76.03 381.534C64.72 390.124 49.27 390.124 37.96 381.534L32.47 377.364C22.73 369.974 11.39 366.174 0 365.914V390.334C6.27 390.584 12.49 392.694 17.79 396.714L23.28 400.884ZM23.28 457.674C43.47 473.004 70.52 473.004 90.71 457.674L96.2 453.504C107.5 444.924 122.97 444.924 134.27 453.504L139.76 457.674C159.95 473.004 187 473.004 207.19 457.674L212.68 453.504C216.92 450.284 221.71 448.264 226.64 447.444V422.854C216.57 423.804 206.67 427.564 198 434.154L192.51 438.324C181.21 446.914 165.75 446.914 154.44 438.324L148.95 434.154C128.76 418.824 101.71 418.824 81.52 434.154L76.03 438.324C64.72 446.914 49.27 446.914 37.96 438.324L32.47 434.154C22.73 426.754 11.39 422.964 0 422.704V447.114C6.27 447.364 12.49 449.474 17.79 453.504L23.28 457.674ZM23.28 514.464C43.47 529.794 70.52 529.794 90.71 514.464L96.2 510.294C107.5 501.714 122.97 501.714 134.27 510.294L139.76 514.464C159.95 529.794 187 529.794 207.19 514.464L212.68 510.294C216.92 507.074 221.71 505.054 226.64 504.234V479.644C216.57 480.594 206.67 484.354 198 490.944L192.51 495.114C181.21 503.704 165.75 503.704 154.44 495.114L148.95 490.944C128.76 475.614 101.71 475.614 81.52 490.944L76.03 495.114C64.72 503.704 49.27 503.704 37.96 495.114L32.47 490.944C22.73 483.554 11.39 479.754 0 479.494V503.914C6.27 504.164 12.49 506.274 17.79 510.294L23.28 514.464ZM641.12 141.234H386.04V170.534H641.12V770.714H0V800.014H670.42V141.234H641.12Z" fill="white"/>
<path d="M137.24 224.131C137.24 253.781 113.09 277.931 83.44 277.931H29.65V170.331H83.44C113.09 170.331 137.24 194.481 137.24 224.131ZM167.12 223.891C167.12 177.751 129.58 140.451 83.44 140.451L0 140.211V307.571H83.68C106.63 307.571 127.43 298.241 142.5 282.941C144.17 281.271 145.85 279.591 147.29 277.921C159.72 263.331 167.13 244.451 167.13 223.881" fill="white"/>
<path d="M226.628 140.195H196.738V307.555H226.628V140.195Z" fill="white"/>
<path d="M323.429 393.624H254.809V363.734H421.929V393.624H353.319V531.104H323.429V393.624Z" fill="white"/>
<path d="M574.42 408.924C574.42 414.904 570.83 420.404 565.33 422.794C563.42 423.754 561.26 424.234 559.12 424.234L483.32 424.474V393.624H559.12C564.38 393.624 567.96 396.014 569.88 397.924C571.55 399.604 574.42 403.424 574.42 408.924ZM604.06 408.924C604.06 396.494 599.04 385.254 590.91 376.884C582.78 368.754 571.54 363.734 559.11 363.734H453.43V531.094H483.31V454.104H513.2C523.96 454.104 533.28 459.844 538.54 468.444L539.26 469.884L555.27 501.204L570.57 531.084H604.04L588.74 501.204L564.83 453.624C569.37 453.144 573.68 451.954 577.75 450.034C593.29 442.854 604.05 427.084 604.05 408.904" fill="white"/>
<path d="M29.89 582.219H0V749.589H29.89V582.219Z" fill="white"/>
<path d="M142.668 612.109H226.348V582.219H142.668C96.5283 582.219 58.9883 619.759 58.9883 665.899C58.9883 712.039 96.5283 749.579 142.668 749.579H226.348V719.699H142.668C113.018 719.699 88.8683 695.549 88.8683 665.899C88.8683 636.249 113.008 612.099 142.668 612.099" fill="white"/>
<path d="M323.429 612.351H254.809V582.461H421.929V612.351H353.319V749.831H323.429V612.351Z" fill="white"/>
<path d="M361.407 277.679H309.047C296.377 277.679 286.097 267.399 286.097 254.729H256.207C256.207 283.899 279.877 307.569 309.047 307.569H361.407C390.577 307.569 414.247 283.899 414.247 254.729C414.247 242.059 409.707 230.339 402.287 221.259C401.577 220.539 401.097 219.829 400.377 219.109C390.807 208.589 376.937 201.899 361.407 201.899H301.157C292.787 201.899 285.857 194.969 285.857 186.599V185.639C285.857 177.269 292.787 170.339 301.157 170.339H362.627V140.219H301.157C276.287 140.219 256.207 160.539 256.207 185.409V186.359C256.207 195.929 259.077 204.769 264.097 211.949C265.767 214.579 267.687 216.969 269.837 219.119C277.967 227.009 288.967 231.789 301.167 231.789H361.417C374.087 231.789 384.607 242.069 384.607 254.739C384.607 267.409 374.087 277.689 361.417 277.689" fill="white"/>
<path d="M567.188 10.65C555.018 17.74 546.258 27.69 540.908 40.46C537.508 48.59 536.538 56.02 537.998 62.63C539.728 69.64 544.028 74.67 550.998 77.72C557.348 80.45 568.008 81.84 582.908 81.84H635.978L641.278 68.86H611.378C596.978 68.86 587.378 67 582.588 63.3C577.368 59.29 577.948 50 582.028 40.13C589.168 23.1 604.068 12.48 624.678 12.48H647.858L642.548 25.3H660.138L670.658 0H611.448C594.108 0 579.338 3.57 567.188 10.64" fill="white"/>
<path d="M114.367 62.7341C106.837 69.7141 98.3173 74.7241 88.8173 77.7841C80.1373 80.5341 68.3574 81.9141 53.4574 81.9141H0.277344L20.1073 34.7741H37.7074L23.7473 67.8941L42.4274 67.9341C56.8674 67.9341 64.9673 66.8541 72.8173 63.1541C81.3973 59.1241 85.0273 50.0741 89.1373 40.2441C96.2573 23.2341 90.2773 12.9641 69.6673 12.9641H29.2773L34.5773 0.164062H93.2573C110.577 0.164062 122.377 3.71406 128.627 10.7841C134.877 17.8741 135.337 27.7941 130.007 40.5641C126.607 48.7041 121.397 56.0841 114.387 62.7341" fill="white"/>
</svg>
