<svg width="24" height="19" viewBox="0 0 24 19" fill="none" xmlns="http://www.w3.org/2000/svg">
<g clip-path="url(#clip0_0_330)">
<path d="M3.48617 9.30372L0.271484 10.544L3.33008 18.45L6.54477 17.2054L6.2832 16.5304L6.93711 16.2815L13.6871 17.9184C14.3613 18.0831 15.0699 18.036 15.7163 17.7834L22.5296 15.1467C23.0012 14.9615 23.3799 14.5966 23.5825 14.1322C23.785 13.6677 23.7948 13.1419 23.6096 12.6703C23.4244 12.1987 23.0595 11.8199 22.5951 11.6174C22.1307 11.4149 21.6048 11.4051 21.1332 11.5903L17.484 12.9951L17.4545 12.9065C17.3303 12.5415 17.1278 12.208 16.861 11.9296C16.5943 11.6512 16.2698 11.4346 15.9104 11.295L9.16039 8.71732C8.49933 8.46207 7.76692 8.46207 7.10586 8.71732L3.75195 10.0167L3.48617 9.30372ZM6.86117 15.3197L5.9457 15.674L4.08945 10.8773L7.46445 9.57794C7.91276 9.40695 8.40833 9.40695 8.85664 9.57794L15.6066 12.1598C15.84 12.2487 16.0508 12.3883 16.2237 12.5685C16.3966 12.7487 16.5273 12.965 16.6065 13.2019L16.6487 13.3284L16.463 13.4001C15.9051 13.6186 15.2877 13.6321 14.7207 13.4381L10.3121 11.9404L10.0168 12.8137L14.417 14.3072C15.189 14.5669 16.0276 14.549 16.7879 14.2565L16.9313 14.1975L17.3827 14.0245L21.4665 12.434C21.5882 12.3796 21.7197 12.3504 21.8531 12.3484C21.9864 12.3463 22.1187 12.3715 22.2421 12.4222C22.3654 12.4729 22.4771 12.5482 22.5704 12.6435C22.6637 12.7388 22.7366 12.852 22.7848 12.9764C22.8329 13.1007 22.8552 13.2336 22.8504 13.3669C22.8456 13.5001 22.8137 13.631 22.7566 13.7515C22.6996 13.8721 22.6187 13.9798 22.5187 14.068C22.4188 14.1563 22.3019 14.2233 22.1752 14.265L15.3746 16.9101C14.9022 17.0915 14.3859 17.1253 13.8938 17.0072L6.86117 15.3197Z" fill="white"/>
<path d="M16.3276 0.512209C15.4379 0.511374 14.568 0.77442 13.8279 1.26807C13.0878 1.76172 12.5107 2.46379 12.1697 3.28547C11.8287 4.10715 11.739 5.01152 11.9121 5.88417C12.0851 6.75681 12.5131 7.55853 13.1419 8.18789C13.7707 8.81726 14.572 9.24599 15.4445 9.41986C16.3169 9.59373 17.2214 9.50492 18.0434 9.16466C18.8654 8.8244 19.568 8.24799 20.0623 7.50834C20.5567 6.76869 20.8205 5.89904 20.8205 5.0094C20.8194 3.81774 20.3458 2.67515 19.5036 1.83213C18.6614 0.989103 17.5192 0.514442 16.3276 0.512209ZM16.3276 8.9244C15.5531 8.92523 14.7957 8.69633 14.1514 8.26665C13.507 7.83697 13.0045 7.22583 12.7076 6.51053C12.4106 5.79523 12.3325 5.00792 12.4831 4.24821C12.6337 3.48849 13.0062 2.79051 13.5535 2.24257C14.1009 1.69462 14.7985 1.32134 15.558 1.16993C16.3176 1.01853 17.105 1.09581 17.8206 1.39201C18.5362 1.6882 19.1479 2.18999 19.5783 2.8339C20.0086 3.47781 20.2384 4.2349 20.2384 5.0094C20.2372 6.04665 19.825 7.04116 19.0919 7.775C18.3589 8.50884 17.3648 8.92216 16.3276 8.9244Z" fill="white"/>
<path d="M16.5048 4.21947V2.53197C16.6785 2.57457 16.8439 2.64586 16.9941 2.74291C17.1542 2.85447 17.2892 2.99815 17.3907 3.16479C17.5076 3.35518 17.5971 3.56111 17.6565 3.7765H17.8041V2.67963C17.4068 2.44631 16.9634 2.30235 16.5048 2.25775V2.08057H16.1757V2.25775C15.7539 2.28379 15.353 2.45011 15.0366 2.73025C14.9172 2.84229 14.8219 2.97754 14.7567 3.1277C14.6914 3.27787 14.6574 3.43979 14.6569 3.60353C14.6466 3.90289 14.7524 4.19465 14.9523 4.41775C15.3176 4.77522 15.7274 5.0843 16.1715 5.33744V7.21478C15.9559 7.20161 15.7451 7.14568 15.5513 7.05025C15.3777 6.96213 15.2317 6.82783 15.1294 6.66213C15.0069 6.45457 14.9253 6.22543 14.889 5.98713H14.7287V7.21478C14.9598 7.30558 15.1983 7.37615 15.4416 7.42572C15.6782 7.46982 15.9182 7.49241 16.1588 7.49322V7.9151H16.4879V7.47213C16.8978 7.4559 17.2877 7.29093 17.5848 7.00807C17.7146 6.87832 17.8167 6.72353 17.8849 6.5531C17.953 6.38267 17.9859 6.20016 17.9813 6.01666C17.9878 5.6756 17.8693 5.34396 17.648 5.08432C17.3029 4.75137 16.919 4.46102 16.5048 4.21947ZM16.1757 3.99588C15.9534 3.86794 15.7549 3.70236 15.5893 3.5065C15.5381 3.44388 15.5008 3.37106 15.4799 3.29289C15.459 3.21471 15.455 3.13299 15.4682 3.05316C15.4813 2.97332 15.5114 2.89722 15.5563 2.8299C15.6012 2.76258 15.6599 2.7056 15.7285 2.66275C15.8606 2.57162 16.0154 2.51903 16.1757 2.51088V3.99588ZM16.9857 6.949C16.8589 7.08722 16.6897 7.17926 16.5048 7.21057V5.56525C16.6954 5.69452 16.8635 5.85413 17.0026 6.03775C17.0895 6.17235 17.1363 6.32892 17.1376 6.48916C17.1432 6.65562 17.0894 6.81866 16.9857 6.949Z" fill="white"/>
</g>
<defs>
<clipPath id="clip0_0_330">
<rect width="24" height="18" fill="white" transform="translate(0 0.480957)"/>
</clipPath>
</defs>
</svg>
