<svg width="24" height="19" viewBox="0 0 24 19" fill="none" xmlns="http://www.w3.org/2000/svg">
<g clip-path="url(#clip0_152_319)">
<path d="M20.1561 0.480957H3.84361C3.61992 0.481218 3.40546 0.570196 3.24728 0.728373C3.0891 0.886551 3.00012 1.10101 2.99986 1.32471V17.6372C3.00012 17.8609 3.0891 18.0754 3.24728 18.2335C3.40546 18.3917 3.61992 18.4807 3.84361 18.481H20.1561C20.3798 18.4807 20.5943 18.3917 20.7524 18.2335C20.9106 18.0754 20.9996 17.8609 20.9999 17.6372V1.32471C20.9996 1.10101 20.9106 0.886551 20.7524 0.728373C20.5943 0.570196 20.3798 0.481218 20.1561 0.480957ZM20.4374 17.6372C20.4373 17.7118 20.4076 17.7833 20.3549 17.836C20.3022 17.8887 20.2307 17.9184 20.1561 17.9185H3.84361C3.76904 17.9184 3.69755 17.8887 3.64482 17.836C3.59209 17.7833 3.56244 17.7118 3.56236 17.6372V1.32471C3.56244 1.25014 3.59209 1.17864 3.64482 1.12592C3.69755 1.07319 3.76904 1.04353 3.84361 1.04346H20.1561C20.2307 1.04353 20.3022 1.07319 20.3549 1.12592C20.4076 1.17864 20.4373 1.25014 20.4374 1.32471V17.6372Z" fill="white"/>
<path d="M14.5311 6.38721H9.46861C9.31949 6.38739 9.17652 6.44672 9.07107 6.55217C8.96562 6.65761 8.9063 6.80058 8.90611 6.94971V12.0122C8.90626 12.1613 8.96557 12.3043 9.07103 12.4098C9.17649 12.5152 9.31947 12.5746 9.46861 12.5747H14.5311C14.6803 12.5746 14.8232 12.5152 14.9287 12.4098C15.0342 12.3043 15.0935 12.1613 15.0936 12.0122V6.94971C15.0934 6.80058 15.0341 6.65761 14.9287 6.55217C14.8232 6.44672 14.6802 6.38739 14.5311 6.38721ZM9.46861 12.0122V6.94971H14.5311L14.5314 12.0122H9.46861Z" fill="white"/>
<path d="M13.6866 7.51335H10.3116C10.237 7.51335 10.1654 7.54298 10.1127 7.59573C10.0599 7.64847 10.0303 7.72001 10.0303 7.7946V11.1696C10.0303 11.2442 10.0599 11.3157 10.1127 11.3685C10.1654 11.4212 10.237 11.4508 10.3116 11.4508H13.6866C13.7611 11.4508 13.8327 11.4212 13.8854 11.3685C13.9382 11.3157 13.9678 11.2442 13.9678 11.1696V7.7946C13.9678 7.72001 13.9382 7.64847 13.8854 7.59573C13.8327 7.54298 13.7611 7.51335 13.6866 7.51335ZM13.4053 10.8883H10.5928V8.07585H13.4053V10.8883ZM6.15608 3.17127L6.47643 3.20038C6.51321 3.20372 6.5503 3.19979 6.58556 3.1888C6.62083 3.17781 6.65358 3.15998 6.68196 3.13633C6.71033 3.11268 6.73377 3.08368 6.75094 3.05097C6.76811 3.01826 6.77866 2.98249 6.782 2.94571C6.78535 2.90892 6.78141 2.87184 6.77042 2.83657C6.75943 2.80131 6.7416 2.76855 6.71796 2.74017C6.69431 2.7118 6.6653 2.68836 6.63259 2.67119C6.59989 2.65403 6.56412 2.64347 6.52733 2.64013L5.43355 2.54071C5.39249 2.53697 5.3511 2.54231 5.31233 2.55635C5.27356 2.57038 5.23835 2.59277 5.20919 2.62193C5.18004 2.65108 5.15765 2.68629 5.14361 2.72507C5.12958 2.76384 5.12424 2.80522 5.12797 2.84629L5.22739 3.94007C5.23371 4.00995 5.26592 4.07494 5.31769 4.1223C5.36947 4.16965 5.43707 4.19594 5.50724 4.196C5.51568 4.196 5.52425 4.19558 5.53297 4.1946C5.60722 4.18782 5.67573 4.15184 5.72346 4.09457C5.77119 4.03729 5.79422 3.96341 5.7875 3.88916L5.75854 3.56896L7.84429 5.65471C7.89733 5.70594 7.96837 5.73429 8.04212 5.73365C8.11586 5.73301 8.1864 5.70343 8.23855 5.65128C8.29069 5.59914 8.32027 5.52859 8.32091 5.45485C8.32155 5.38111 8.29321 5.31007 8.24197 5.25702L6.15608 3.17127ZM7.84429 13.3095L5.75854 15.3952L5.78764 15.0749C5.79436 15.0006 5.77128 14.9267 5.7235 14.8694C5.67571 14.8121 5.60713 14.7762 5.53283 14.7695C5.45854 14.7627 5.38462 14.7858 5.32734 14.8336C5.27006 14.8814 5.23411 14.95 5.22739 15.0243L5.12797 16.1179C5.12444 16.1568 5.12905 16.1961 5.14152 16.2331C5.15399 16.2701 5.17404 16.3042 5.2004 16.333C5.22676 16.3619 5.25884 16.3849 5.2946 16.4007C5.33036 16.4165 5.36902 16.4246 5.4081 16.4246C5.41654 16.4246 5.42497 16.4242 5.43355 16.4235L6.52733 16.3241C6.60163 16.3173 6.6702 16.2813 6.71796 16.224C6.76572 16.1667 6.78875 16.0928 6.782 16.0185C6.77525 15.9442 6.73927 15.8756 6.68196 15.8279C6.62465 15.7801 6.55072 15.7571 6.47643 15.7638L6.15622 15.7929L8.24197 13.7072C8.29321 13.6541 8.32155 13.5831 8.32091 13.5093C8.32027 13.4356 8.29069 13.3651 8.23855 13.3129C8.1864 13.2608 8.11586 13.2312 8.04212 13.2306C7.96837 13.2299 7.89733 13.2583 7.84429 13.3095ZM18.5646 2.54071L17.4708 2.64013C17.434 2.64347 17.3982 2.65403 17.3655 2.67119C17.3328 2.68836 17.3038 2.7118 17.2801 2.74017C17.2565 2.76855 17.2387 2.80131 17.2277 2.83657C17.2167 2.87184 17.2128 2.90892 17.2161 2.94571C17.2194 2.98249 17.23 3.01826 17.2472 3.05097C17.2643 3.08368 17.2878 3.11268 17.3161 3.13633C17.3445 3.15998 17.3773 3.17781 17.4125 3.1888C17.4478 3.19979 17.4849 3.20372 17.5217 3.20038L17.8419 3.17127L15.7561 5.25702C15.7293 5.28297 15.7078 5.314 15.6931 5.34831C15.6784 5.38263 15.6706 5.41953 15.6703 5.45688C15.67 5.49422 15.6771 5.53126 15.6912 5.56582C15.7054 5.60039 15.7262 5.63179 15.7526 5.65819C15.779 5.6846 15.8105 5.70549 15.845 5.71963C15.8796 5.73377 15.9166 5.74088 15.954 5.74056C15.9913 5.74024 16.0282 5.73248 16.0625 5.71774C16.0968 5.703 16.1279 5.68157 16.1538 5.65471L18.2396 3.56896L18.2105 3.88916C18.2037 3.96343 18.2267 4.03735 18.2744 4.09466C18.3222 4.15196 18.3907 4.18796 18.465 4.19474C18.4737 4.19558 18.4824 4.19586 18.491 4.19586C18.5611 4.19577 18.6287 4.16948 18.6804 4.12216C18.7322 4.07484 18.7644 4.0099 18.7707 3.94007L18.8701 2.84629C18.8739 2.80522 18.8685 2.76384 18.8545 2.72507C18.8405 2.68629 18.8181 2.65108 18.7889 2.62193C18.7598 2.59277 18.7245 2.57038 18.6858 2.55635C18.647 2.54231 18.6056 2.53697 18.5646 2.54071ZM18.4651 14.7695C18.3909 14.7762 18.3224 14.8122 18.2746 14.8695C18.2269 14.9268 18.2039 15.0006 18.2106 15.0749L18.2396 15.3952L16.1538 13.3095C16.1008 13.2583 16.0297 13.2299 15.956 13.2306C15.8822 13.2312 15.8117 13.2608 15.7596 13.3129C15.7074 13.3651 15.6778 13.4356 15.6772 13.5093C15.6765 13.5831 15.7049 13.6541 15.7561 13.7072L17.8419 15.7929L17.5217 15.7638C17.4474 15.7571 17.3734 15.7801 17.3161 15.8279C17.2588 15.8756 17.2228 15.9442 17.2161 16.0185C17.2093 16.0928 17.2324 16.1667 17.2801 16.224C17.3279 16.2813 17.3965 16.3173 17.4708 16.3241L18.5646 16.4235C18.573 16.4242 18.5816 16.4246 18.59 16.4246C18.6291 16.4246 18.6677 16.4165 18.7035 16.4007C18.7392 16.385 18.7713 16.3619 18.7976 16.3331C18.824 16.3042 18.8441 16.2702 18.8565 16.2332C18.869 16.1962 18.8736 16.157 18.8701 16.1181L18.7707 15.0241C18.7636 14.95 18.7275 14.8816 18.6703 14.8339C18.6131 14.7863 18.5393 14.7631 18.4651 14.7695Z" fill="white"/>
</g>
<defs>
<clipPath id="clip0_152_319">
<rect width="24" height="18" fill="white" transform="translate(0 0.480957)"/>
</clipPath>
</defs>
</svg>
